<?xml version="1.0" encoding="utf-8"?>
<!-- Generator: Adobe Illustrator 25.2.3, SVG Export Plug-In . SVG Version: 6.00 Build 0)  -->
<svg version="1.1" id="Layer_1" xmlns="http://www.w3.org/2000/svg" xmlns:xlink="http://www.w3.org/1999/xlink" x="0px" y="0px"
	 viewBox="0 0 280.34 103.66" style="enable-background:new 0 0 280.34 103.66;" xml:space="preserve">
<style type="text/css">
	.st0{display:none;fill:#FFFFFF;}
	.st1{fill:#4CA847;}
	.st2{fill:#4AA546;}
	.st3{fill:#DA2029;}
	.st4{fill:#296532;}
	.st5{fill:#2C6330;}
</style>
<g>
	<path class="st0" d="M1.34,104.17c0-32.56,0-65.12,0-97.68c94.48,0,188.96,0,283.44,0c0,32.56,0,65.12,0,97.68
		C190.3,104.17,95.82,104.17,1.34,104.17z M112.76,52.82c-0.07-0.17-0.1-0.32-0.19-0.45c-2.41-3.57-5.54-6.42-9.3-8.45
		c-3.96-2.14-8.25-3.16-12.8-2.35c-2.11,0.38-4.28,0.67-6.27,1.41c-4.99,1.87-9.9,3.96-14.84,5.98c-1.14,0.47-2.27,0.99-3.35,1.59
		c-0.74,0.41-1.36,1.01-1.16,2.03c0.19,0.99,0.93,1.22,1.77,1.28c3.26,0.23,6.2-0.89,9.03-2.3c1.46-0.73,2.8-1.82,4.53-1.62
		c0.71,0.08,1.61,0.47,1.98,1.02c0.51,0.76,0.23,1.7-0.57,2.34c-0.25,0.2-0.47,0.45-0.74,0.6c-2.63,1.47-5.18,3.14-7.93,4.34
		c-4.67,2.04-9.51,3.63-14.68,3.99c-5.87,0.42-11.39-0.33-16.56-3.44c-2.28-1.37-4.93-2.21-7.5-2.95c-1.25-0.36-2.77-0.13-4.1,0.16
		c-1.06,0.23-1.16,0.94-0.32,1.61c1.83,1.47,3.65,2.98,5.61,4.26c2.13,1.38,4.36,2.65,6.67,3.71c2.48,1.14,5.06,2.07,7.65,2.94
		c1.58,0.53,3.25,0.82,4.89,1.16c5.1,1.06,10.21,1.67,15.41,0.61c6.17-1.25,11.69-3.97,16.85-7.43c4.26-2.85,8.35-5.92,13.12-7.97
		c2.92-1.26,5.84-2.06,8.99-2.09C110.18,52.81,111.41,52.82,112.76,52.82z M150.79,48.13c-0.61-0.04-1.07-0.09-1.53-0.09
		c-2.88-0.01-5.76,0.01-8.63-0.02c-1.34-0.01-1.62-0.39-1.33-1.71c0.17-0.78,0.4-1.54,0.57-2.32c0.33-1.55,0.54-1.74,2.17-1.74
		c3.88,0,7.75-0.02,11.63,0.02c1.12,0.01,1.83-0.25,1.95-1.52c0.07-0.74,0.4-1.46,0.59-2.19c0.59-2.26,0.56-2.29-1.72-2.28
		c-0.24,0-0.48,0-0.72,0c-6.44,0-12.87,0-19.31,0c-0.59,0-1.22-0.1-1.42,0.73c-0.59,2.48-1.23,4.95-1.79,7.43
		c-0.66,2.95-1.22,5.93-1.9,8.88c-0.86,3.76-1.79,7.5-2.72,11.25c-0.17,0.7,0.05,0.98,0.74,0.97c0.72-0.01,1.44,0,2.16,0
		c6.44,0,12.87-0.02,19.31,0.03c1.09,0.01,1.6-0.34,1.79-1.41c0.19-1.06,0.49-2.09,0.79-3.13c0.39-1.35,0.14-1.72-1.31-1.72
		c-3.48-0.01-6.95,0.01-10.43,0c-3.39-0.02-3.58-0.3-2.54-3.6c0.59-1.87,0.75-1.97,2.69-1.96c2.84,0.02,5.68,0.03,8.51-0.02
		c0.43-0.01,1.14-0.29,1.23-0.6C150.04,51.54,150.37,49.9,150.79,48.13z M244.78,48.03c-0.66,0-1.12,0-1.59,0
		c-2.84,0-5.68,0.02-8.52-0.01c-1.29-0.01-1.54-0.39-1.29-1.64c0.17-0.86,0.38-1.72,0.46-2.59c0.1-0.98,0.64-1.42,1.54-1.51
		c0.48-0.04,0.96-0.05,1.44-0.05c3.76,0,7.52,0,11.27,0.03c0.85,0.01,1.34-0.29,1.52-1.16c0.22-1.1,0.56-2.17,0.76-3.27
		c0.24-1.36,0.07-1.55-1.31-1.56c-3.4-0.02-6.8-0.01-10.19-0.01c-3.44,0-6.88,0-10.31,0c-0.71,0-1.37,0.05-1.56,0.94
		c-0.63,2.8-1.28,5.59-1.92,8.38c-0.77,3.38-1.54,6.76-2.31,10.14c-0.65,2.84-1.29,5.68-1.96,8.52c-0.23,0.97,0.16,1.29,1.11,1.29
		c7.12-0.01,14.23-0.01,21.35,0.02c0.8,0,1.15-0.35,1.32-1.07c0.23-0.97,0.51-1.92,0.75-2.89c0.55-2.18,0.45-2.3-1.81-2.3
		c-3.8,0-7.6,0.01-11.39-0.02c-1.41-0.01-1.75-0.57-1.29-1.92c0.15-0.45,0.28-0.92,0.34-1.39c0.29-2.04,0.47-2.22,2.59-2.23
		c2.88-0.01,5.76,0.02,8.63-0.04c0.42-0.01,1.12-0.31,1.21-0.62C244.07,51.49,244.37,49.85,244.78,48.03z M40.58,70.38
		c-0.06,0.1-0.12,0.2-0.19,0.3c0.36,0.32,0.69,0.7,1.1,0.95c1.26,0.77,2.55,1.49,3.82,2.24c4.86,2.85,10.07,4.78,15.59,5.93
		c6.62,1.37,13.14,1.22,19.65-0.72c5.13-1.53,9.51-4.26,13.5-7.74c3.33-2.91,6.55-5.99,10.05-8.68c4.17-3.2,9.06-3.97,14.21-3.18
		c1.52,0.23,3.03,0.55,4.55,0.82c0.03-0.29-0.09-0.31-0.19-0.38c-2.65-1.74-5.62-2.59-8.7-3.16c-6.41-1.19-12.19,0.09-17.29,4.28
		c-2.96,2.43-5.91,4.89-9.05,7.07c-6.36,4.43-13.44,6.97-21.24,7.31c-7.45,0.33-14.63-1.09-21.63-3.51
		C43.36,71.41,41.97,70.89,40.58,70.38z M195.6,42.12c0.66,0.05,1.08,0.1,1.51,0.11c2.08,0.01,4.16-0.01,6.24,0.03
		c1.36,0.02,1.63,0.38,1.34,1.71c-0.52,2.33-1.11,4.64-1.63,6.97c-1.01,4.47-1.99,8.94-3.03,13.41c-0.21,0.89,0.1,1.2,0.92,1.2
		c2.16,0,4.32,0.01,6.48-0.05c0.33-0.01,0.83-0.36,0.92-0.66c0.32-0.97,0.5-2,0.73-3c1.36-5.99,2.72-11.98,4.06-17.98
		c0.25-1.11,0.82-1.63,1.99-1.61c2.32,0.04,4.64-0.01,6.96-0.03c0.57,0,1.11,0.02,1.25-0.78c0.2-1.14,0.5-2.26,0.77-3.38
		c0.36-1.52,0.17-1.78-1.36-1.78c-6.64,0-13.27,0-19.91,0c-1.6,0-3.2-0.05-4.8,0.02c-0.42,0.02-1.11,0.33-1.2,0.64
		C196.36,38.57,196.03,40.24,195.6,42.12z M164.54,65.53c0,0,0-0.01,0-0.01c3.4,0,6.8-0.02,10.2,0.02c0.92,0.01,1.41-0.31,1.59-1.22
		c0.23-1.18,0.53-2.33,0.75-3.51c0.26-1.41,0.19-1.49-1.28-1.49c-3.68-0.01-7.36,0-11.04-0.01c-1.43-0.01-1.71-0.35-1.43-1.76
		c0.27-1.37,0.62-2.72,0.94-4.08c0.62-2.64,1.24-5.27,1.86-7.91c0.63-2.68,1.28-5.35,1.9-8.03c0.14-0.61,0.19-1.25-0.76-1.25
		c-2.28,0-4.56-0.03-6.84,0.02c-0.29,0.01-0.73,0.36-0.82,0.64c-0.32,1.02-0.52,2.08-0.76,3.12c-1.11,4.94-2.21,9.89-3.33,14.82
		c-0.72,3.14-1.47,6.28-2.24,9.41c-0.25,1,0.11,1.26,1.06,1.25C157.74,65.5,161.14,65.53,164.54,65.53z M179.01,65.44
		c0.63,0.04,1.05,0.09,1.48,0.09c1.68,0,3.36-0.01,5.03-0.01c1.79-0.01,1.83,0,2.24-1.76c1.11-4.73,2.18-9.48,3.27-14.22
		c0.92-4,1.83-7.99,2.78-11.98c0.21-0.9,0.08-1.34-0.99-1.3c-1.96,0.06-3.92,0.04-5.87-0.01c-0.82-0.02-1.25,0.25-1.44,1.06
		c-0.72,3.06-1.49,6.11-2.21,9.17c-1.06,4.54-2.11,9.08-3.14,13.62C179.77,61.82,179.42,63.56,179.01,65.44z M120.21,62.59
		c-0.23-0.11-0.3-0.17-0.38-0.18c-0.56-0.05-1.11-0.09-1.67-0.13c-5.28-0.37-9.84,1.27-13.59,5.01c-2.17,2.17-4.21,4.48-6.41,6.61
		c-4.23,4.08-8.75,7.73-14.6,9.26c-0.22,0.06-0.4,0.28-0.87,0.62c0.78,0.08,1.24,0.2,1.7,0.17c2.67-0.15,5.36-0.17,8.01-0.52
		c4.73-0.62,8.92-2.42,11.98-6.29c2.15-2.72,4.3-5.45,6.52-8.11c2.38-2.85,4.97-5.44,8.88-6.08
		C119.9,62.93,120.01,62.76,120.21,62.59z M201.68,72.75c-0.29,0.05-0.55,0.11-0.81,0.13c-1.18,0.12-2.36,0.27-3.54,0.3
		c-0.29,0.01-0.77-0.35-0.85-0.63c-0.32-1.05,0.62-2.62,1.74-2.8c2.29-0.37,4.46-0.08,6.3,1.51c0.28,0.24,0.58,0.45,0.88,0.67
		c0.12-0.04,0.23-0.09,0.35-0.13c0-0.74-0.02-1.48,0.01-2.22c0.04-0.96-0.35-1.35-1.35-1.33c-3.44,0.05-6.87,0.03-10.31,0.04
		c-1.42,0-2.84,0-4.24,0c-0.33,2.23-6.26,13.57-7.63,14.32c-0.57-4.81-1.47-9.46-1.28-14.25c-0.96,0-2.05,0-3.06,0
		c0.84,5.77,1.75,11.42,2.09,17.27c0.74,0,1.69,0.17,2.52-0.07c0.4-0.12,0.56-1.02,0.84-1.57c0.09-0.18,0.22-0.34,0.31-0.51
		c1.44-2.58,2.87-5.16,4.33-7.73c1.2-2.12,2.41-4.23,3.65-6.33c0.43-0.74,1.22-1.14,1.93-0.71c0.42,0.26,0.71,1.13,0.65,1.68
		c-0.17,1.58-0.47,3.16-0.87,4.7c-0.89,3.48-0.98,7.17-2.77,10.46c0.17,0.05,0.32,0.13,0.47,0.13c3.64,0.02,7.28,0.04,10.92,0.02
		c0.32,0,0.82-0.15,0.94-0.38c0.61-1.15,1.12-2.36,1.67-3.54c-0.6,0.05-0.96,0.23-1.27,0.47c-2.01,1.58-4.3,2.18-6.83,2.06
		c-1.78-0.09-2.45-0.75-2.12-2.5c0.38-2.04,0.95-4.04,1.38-6.07c0.18-0.85,0.68-1.18,1.44-1.08c1.46,0.19,2.91,0.46,4.52,0.72
		C201.68,74.71,201.68,73.78,201.68,72.75z M172.87,75.38c-0.1-0.7-0.14-1.42-0.32-2.09c-0.85-3.24-2.94-4.63-5.51-4.98
		c-4.83-0.67-9.25,3.81-9.6,9.7c-0.17,2.88,0.66,5.24,2.95,6.6c1.85,1.1,3.71,1.26,5.74,0.7C170.09,84.21,172.8,79.6,172.87,75.38z
		 M139.04,71.67c0.12-0.03,0.24-0.07,0.36-0.1c0-0.73-0.02-1.46,0.01-2.19c0.03-0.8-0.27-1.16-1.12-1.13
		c-1.48,0.04-2.96-0.05-4.43-0.03c-5.6,0.07-9.93,4.32-10.12,9.88c-0.11,3.27,2.01,6.66,5.4,7.19c1.92,0.3,3.88,0.31,5.83,0.4
		c1.18,0.05,2.36,0.01,3.32,0.01c0.72-3.9,1.2-7.62,2.77-11.41c-1.24,0.06-2.36,0.11-3.1,0.14c-0.63,2.89-1.14,5.42-1.75,7.92
		c-0.29,1.17-1.29,1.72-2.4,1.91c-3.22,0.55-5.94-1.17-6.98-4.27c-0.64-1.9-0.32-3.71,0.29-5.52c1.34-3.97,6.46-6.05,10.13-4.1
		C137.88,70.7,138.44,71.23,139.04,71.67z M220.14,72.07c0.12-0.02,0.25-0.04,0.37-0.05c0-0.8,0.13-1.64-0.07-2.39
		c-0.07-0.25-0.98-0.26-1.5-0.41c-0.42-0.12-0.84-0.26-1.24-0.43c-2.17-0.85-4.28-0.77-6.36,0.31c-1.27,0.67-1.96,1.75-2.09,3.14
		c-0.15,1.55,0.99,2.79,2.97,3.55c1.56,0.6,3.15,1.19,4.59,2.02c2.03,1.18,2.13,3.37,0.39,4.99c-2.35,2.19-6.5,1.94-8.74-0.52
		c-0.36-0.39-0.7-0.81-1.31-1.51c-0.14,1.31-0.24,2.25-0.33,3.03c1.2,0.36,2.25,0.49,3.13,0.96c3.1,1.63,6.95,0.94,9.3-1.29
		c2.49-2.36,2.43-6.22-1.46-7.6c-1.72-0.61-3.39-1.4-5.01-2.26c-1.61-0.86-1.51-2.59,0.12-3.44c2.03-1.06,3.94-0.64,5.73,0.58
		C219.18,71.14,219.64,71.63,220.14,72.07z M155.07,81.52c-0.08-0.06-0.16-0.12-0.24-0.18c-0.57,0.43-1.12,0.89-1.7,1.29
		c-1.5,1.05-3.13,1.72-5.01,1.68c-1.85-0.04-2.49-0.76-2.11-2.57c0.66-3.21,1.38-6.41,2.06-9.61c0.31-1.43,0.52-2.91,1.98-3.78
		c-1.67,0-3.35,0-5.31,0c1.33,0.88,1.21,1.93,1,2.97c-0.67,3.37-1.34,6.74-2.08,10.09c-0.3,1.38-0.79,2.71-1.22,4.15
		c-0.1-0.06,0,0.05,0.1,0.05c3.24,0.03,6.47,0.08,9.71,0.05c0.35,0,0.85-0.34,1.03-0.67C153.93,83.87,154.48,82.68,155.07,81.52z
		 M34.81,53.74c0.72,0.35,1.15,0.59,1.61,0.78c2.28,0.97,4.56,1.91,6.83,2.89c1.83,0.79,3.6,1.73,5.47,2.38
		c1.26,0.44,2.65,0.51,3.98,0.74c0.04-0.15,0.09-0.3,0.13-0.45c-0.37-0.26-0.72-0.57-1.12-0.79c-2.71-1.52-5.4-3.1-8.18-4.51
		c-1.59-0.8-3.29-1.41-5-1.93C37.36,52.51,36.12,52.67,34.81,53.74z M42.14,52.52c0.32,0.29,0.46,0.49,0.66,0.59
		c4.24,2.28,8.48,4.58,12.74,6.81c0.98,0.51,2.08,0.77,3.52-0.11c-0.2-0.28-0.59-0.34-0.9-0.52c-0.73-0.41-1.41-0.89-2.14-1.3
		c-3.33-1.87-6.66-3.76-10.03-5.55C44.81,51.83,43.52,51.87,42.14,52.52z M53.85,54.87c0.16,0.21,0.22,0.37,0.34,0.44
		c2.12,1.32,4.23,2.68,6.4,3.92c0.94,0.54,2.02,0.48,3.07,0.04C62.25,56.73,55.84,53.83,53.85,54.87z"/>
	<path class="st1" d="M112.76,52.82c-1.35,0-2.58-0.01-3.81,0c-3.15,0.03-6.07,0.83-8.99,2.09c-4.77,2.06-8.86,5.12-13.12,7.97
		c-5.16,3.45-10.68,6.18-16.85,7.43c-5.21,1.05-10.31,0.44-15.41-0.61c-1.64-0.34-3.31-0.62-4.89-1.16
		c-2.59-0.87-5.17-1.8-7.65-2.94c-2.3-1.06-4.53-2.33-6.67-3.71c-1.97-1.27-3.78-2.78-5.61-4.26c-0.84-0.67-0.74-1.39,0.32-1.61
		c1.33-0.28,2.84-0.52,4.1-0.16c2.58,0.74,5.23,1.58,7.5,2.95c5.18,3.11,10.7,3.85,16.56,3.44c5.17-0.37,10-1.95,14.68-3.99
		c2.75-1.2,5.3-2.87,7.93-4.34c0.27-0.15,0.49-0.4,0.74-0.6c0.8-0.64,1.07-1.58,0.57-2.34c-0.37-0.55-1.27-0.94-1.98-1.02
		c-1.73-0.2-3.07,0.89-4.53,1.62c-2.83,1.41-5.77,2.52-9.03,2.3c-0.85-0.06-1.58-0.29-1.77-1.28c-0.2-1.02,0.42-1.61,1.16-2.03
		c1.08-0.6,2.21-1.12,3.35-1.59c4.93-2.03,9.84-4.12,14.84-5.98c1.99-0.74,4.16-1.04,6.27-1.41c4.54-0.81,8.83,0.21,12.8,2.35
		c3.76,2.03,6.89,4.87,9.3,8.45C112.66,52.5,112.69,52.65,112.76,52.82z"/>
	<path class="st2" d="M150.79,48.13c-0.42,1.77-0.74,3.41-1.23,5c-0.09,0.3-0.8,0.59-1.23,0.6c-2.84,0.05-5.68,0.04-8.51,0.02
		c-1.95-0.01-2.1,0.08-2.69,1.96c-1.04,3.3-0.85,3.58,2.54,3.6c3.48,0.02,6.95,0,10.43,0c1.45,0,1.7,0.37,1.31,1.72
		c-0.3,1.03-0.6,2.07-0.79,3.13c-0.19,1.06-0.7,1.41-1.79,1.41c-6.43-0.05-12.87-0.02-19.31-0.03c-0.72,0-1.44-0.01-2.16,0
		c-0.69,0.01-0.92-0.26-0.74-0.97c0.93-3.74,1.85-7.49,2.72-11.25c0.68-2.95,1.24-5.93,1.9-8.88c0.56-2.49,1.21-4.95,1.79-7.43
		c0.2-0.83,0.82-0.73,1.42-0.73c6.44,0,12.87,0,19.31,0c0.24,0,0.48,0.01,0.72,0c2.28-0.01,2.31,0.02,1.72,2.28
		c-0.19,0.73-0.52,1.45-0.59,2.19c-0.12,1.27-0.83,1.53-1.95,1.52c-3.88-0.04-7.75-0.03-11.63-0.02c-1.63,0-1.84,0.19-2.17,1.74
		c-0.17,0.78-0.39,1.54-0.57,2.32c-0.29,1.32-0.01,1.7,1.33,1.71c2.88,0.02,5.76,0.01,8.63,0.02
		C149.72,48.04,150.18,48.09,150.79,48.13z"/>
	<path class="st2" d="M244.78,48.03c-0.4,1.82-0.7,3.46-1.16,5.06c-0.09,0.31-0.79,0.61-1.21,0.62c-2.88,0.06-5.76,0.03-8.63,0.04
		c-2.12,0.01-2.3,0.18-2.59,2.23c-0.07,0.47-0.19,0.94-0.34,1.39c-0.46,1.35-0.12,1.91,1.29,1.92c3.8,0.03,7.6,0.01,11.39,0.02
		c2.26,0,2.36,0.12,1.81,2.3c-0.24,0.96-0.52,1.92-0.75,2.89c-0.17,0.72-0.51,1.08-1.32,1.07c-7.12-0.03-14.23-0.03-21.35-0.02
		c-0.95,0-1.34-0.32-1.11-1.29c0.66-2.84,1.31-5.68,1.96-8.52c0.77-3.38,1.54-6.76,2.31-10.14c0.64-2.79,1.29-5.58,1.92-8.38
		c0.2-0.89,0.85-0.94,1.56-0.94c3.44,0,6.88,0,10.31,0c3.4,0,6.8-0.01,10.19,0.01c1.38,0.01,1.55,0.2,1.31,1.56
		c-0.19,1.1-0.54,2.17-0.76,3.27c-0.17,0.87-0.67,1.16-1.52,1.16c-3.76-0.03-7.52-0.02-11.27-0.03c-0.48,0-0.96,0.01-1.44,0.05
		c-0.91,0.09-1.45,0.53-1.54,1.51c-0.09,0.87-0.29,1.73-0.46,2.59c-0.25,1.25,0.01,1.63,1.29,1.64c2.84,0.03,5.68,0.01,8.52,0.01
		C243.65,48.03,244.12,48.03,244.78,48.03z"/>
	<path class="st3" d="M40.58,70.38c1.4,0.51,2.79,1.03,4.19,1.52c7.01,2.42,14.18,3.84,21.63,3.51c7.8-0.34,14.87-2.88,21.24-7.31
		c3.14-2.18,6.09-4.64,9.05-7.07c5.1-4.19,10.88-5.47,17.29-4.28c3.08,0.57,6.05,1.42,8.7,3.16c0.1,0.06,0.22,0.09,0.19,0.38
		c-1.52-0.28-3.02-0.59-4.55-0.82c-5.15-0.79-10.04-0.02-14.21,3.18c-3.51,2.69-6.72,5.76-10.05,8.68
		c-3.98,3.48-8.36,6.21-13.5,7.74c-6.51,1.94-13.03,2.09-19.65,0.72c-5.52-1.14-10.72-3.08-15.59-5.93
		c-1.27-0.75-2.57-1.46-3.82-2.24c-0.41-0.25-0.74-0.63-1.1-0.95C40.45,70.58,40.51,70.48,40.58,70.38z"/>
	<path class="st2" d="M195.6,42.12c0.43-1.88,0.75-3.56,1.23-5.19c0.09-0.32,0.78-0.63,1.2-0.64c1.6-0.07,3.2-0.02,4.8-0.02
		c6.64,0,13.27,0,19.91,0c1.54,0,1.72,0.26,1.36,1.78c-0.27,1.13-0.56,2.25-0.77,3.38c-0.14,0.79-0.68,0.77-1.25,0.78
		c-2.32,0.02-4.64,0.06-6.96,0.03c-1.17-0.02-1.75,0.5-1.99,1.61c-1.34,6-2.7,11.99-4.06,17.98c-0.23,1.01-0.4,2.03-0.73,3
		c-0.1,0.3-0.6,0.65-0.92,0.66c-2.16,0.07-4.32,0.05-6.48,0.05c-0.82,0-1.13-0.31-0.92-1.2c1.03-4.46,2.01-8.94,3.03-13.41
		c0.53-2.33,1.11-4.64,1.63-6.97c0.3-1.33,0.02-1.68-1.34-1.71c-2.08-0.04-4.16-0.01-6.24-0.03
		C196.69,42.23,196.26,42.17,195.6,42.12z"/>
	<path class="st2" d="M164.54,65.53c-3.4,0-6.8-0.02-10.2,0.01c-0.96,0.01-1.31-0.25-1.06-1.25c0.77-3.13,1.52-6.27,2.24-9.41
		c1.13-4.94,2.22-9.88,3.33-14.82c0.24-1.05,0.44-2.1,0.76-3.12c0.09-0.28,0.53-0.64,0.82-0.64c2.28-0.05,4.56-0.02,6.84-0.02
		c0.95,0,0.9,0.64,0.76,1.25c-0.62,2.68-1.27,5.35-1.9,8.03c-0.62,2.64-1.24,5.27-1.86,7.91c-0.32,1.36-0.67,2.71-0.94,4.08
		c-0.28,1.41,0,1.75,1.43,1.76c3.68,0.02,7.36,0.01,11.04,0.01c1.47,0,1.55,0.08,1.28,1.49c-0.22,1.18-0.53,2.34-0.75,3.51
		c-0.17,0.91-0.67,1.23-1.59,1.22c-3.4-0.04-6.8-0.02-10.2-0.02C164.54,65.52,164.54,65.52,164.54,65.53z"/>
	<path class="st2" d="M179.01,65.44c0.4-1.88,0.76-3.62,1.15-5.35c1.04-4.54,2.08-9.08,3.14-13.62c0.72-3.06,1.49-6.11,2.21-9.17
		c0.19-0.81,0.61-1.08,1.44-1.06c1.96,0.06,3.92,0.07,5.87,0.01c1.07-0.03,1.2,0.4,0.99,1.3c-0.94,3.99-1.86,7.99-2.78,11.98
		c-1.09,4.74-2.16,9.48-3.27,14.22c-0.41,1.76-0.45,1.75-2.24,1.76c-1.68,0.01-3.36,0.02-5.03,0.01
		C180.06,65.53,179.64,65.48,179.01,65.44z"/>
	<path class="st4" d="M120.21,62.59c-0.2,0.17-0.31,0.34-0.43,0.36c-3.91,0.64-6.5,3.23-8.88,6.08c-2.22,2.66-4.36,5.39-6.52,8.11
		c-3.07,3.87-7.25,5.67-11.98,6.29c-2.65,0.35-5.34,0.38-8.01,0.52c-0.46,0.02-0.92-0.09-1.7-0.17c0.47-0.34,0.65-0.56,0.87-0.62
		c5.85-1.53,10.38-5.18,14.6-9.26c2.21-2.13,4.24-4.44,6.41-6.61c3.75-3.75,8.31-5.39,13.59-5.01c0.56,0.04,1.12,0.08,1.67,0.13
		C119.91,62.42,119.98,62.48,120.21,62.59z"/>
	<path class="st5" d="M197.88,72.71c0,1.03,0,1.96,0,2.61c-1.61-0.26-3.06-0.53-4.52-0.72c-0.76-0.1-1.26,0.23-1.44,1.08
		c-0.43,2.03-0.99,4.03-1.38,6.07c-0.33,1.75,0.34,2.41,2.12,2.5c2.53,0.12,4.82-0.47,6.83-2.06c0.31-0.24,0.67-0.41,1.27-0.47
		c-0.55,1.19-1.06,2.39-1.67,3.54c-0.12,0.23-0.62,0.38-0.94,0.38c-3.64,0.02-7.28,0-10.92-0.02c-0.15,0-0.3-0.08-0.47-0.13
		c1.79-3.28,1.87-6.98,2.77-10.46c0.4-1.54,0.69-3.12,0.87-4.7c0.06-0.55-0.23-1.43-0.65-1.68c-0.7-0.43-1.49-0.03-1.93,0.71
		c-1.24,2.1-2.45,4.21-3.65,6.33c-1.46,2.57-2.88,5.16-4.33,7.73c-0.1,0.17-0.22,0.33-0.31,0.51c-0.28,0.54-0.44,1.45-0.84,1.57
		c-0.83,0.24-1.79,0.07-2.52,0.07c-0.34-5.84-1.24-11.49-2.09-17.27c1.01,0,2.1,0,3.06,0c-0.19,4.79,0.71,9.44,1.28,14.25
		c1.37-0.75,7.3-12.09,7.63-14.32c1.39,0,2.81,0,4.24,0c3.44-0.01,6.88,0.01,10.31-0.04c1-0.02,1.39,0.38,1.35,1.33
		c-0.03,0.74-0.01,1.48-0.01,2.22c-0.12,0.04-0.23,0.09-0.35,0.13c-0.29-0.22-0.6-0.43-0.88-0.67c-1.84-1.59-4.01-1.88-6.3-1.51
		c-1.12,0.18-2.06,1.76-1.74,2.8c0.09,0.28,0.56,0.64,0.85,0.63c1.18-0.03,2.36-0.18,3.54-0.3
		C197.33,72.82,197.59,72.76,197.88,72.71z"/>
	<path class="st5" d="M173.01,75.38c-0.07,4.23-2.8,8.83-6.8,9.92c-2.05,0.56-3.92,0.4-5.79-0.7c-2.31-1.36-3.15-3.72-2.98-6.6
		c0.35-5.88,4.82-10.36,9.69-9.7c2.59,0.35,4.7,1.74,5.56,4.98C172.87,73.95,172.91,74.68,173.01,75.38z M166.28,69.58
		c-0.49,0.08-1.01,0.07-1.47,0.26c-3.53,1.45-5.71,6.14-4.93,10.52c0.52,2.92,3.11,4.69,5.46,3.75c3.52-1.42,5.69-5.74,5.11-10.17
		C170.09,71.21,168.58,69.66,166.28,69.58z"/>
	<path class="st5" d="M139.04,71.67c-0.6-0.44-1.16-0.97-1.81-1.32c-3.67-1.95-8.79,0.13-10.13,4.1c-0.61,1.8-0.93,3.62-0.29,5.52
		c1.04,3.1,3.76,4.82,6.98,4.27c1.11-0.19,2.11-0.73,2.4-1.91c0.62-2.5,1.12-5.03,1.75-7.92c0.74-0.03,1.86-0.08,3.1-0.14
		c-1.56,3.79-2.05,7.51-2.77,11.41c-0.96,0-2.14,0.04-3.32-0.01c-1.95-0.09-3.91-0.11-5.83-0.4c-3.4-0.52-5.51-3.91-5.4-7.19
		c0.19-5.56,4.51-9.81,10.12-9.88c1.48-0.02,2.96,0.07,4.43,0.03c0.85-0.02,1.15,0.33,1.12,1.13c-0.03,0.73-0.01,1.46-0.01,2.19
		C139.28,71.6,139.16,71.64,139.04,71.67z"/>
	<path class="st5" d="M216.34,72.04c-0.5-0.44-0.96-0.93-1.5-1.3c-1.79-1.22-3.7-1.64-5.73-0.58c-1.63,0.85-1.73,2.57-0.12,3.44
		c1.61,0.86,3.29,1.65,5.01,2.26c3.88,1.39,3.94,5.24,1.46,7.6c-2.35,2.23-6.2,2.92-9.3,1.29c-0.88-0.46-1.93-0.6-3.13-0.96
		c0.08-0.78,0.19-1.73,0.33-3.03c0.61,0.7,0.95,1.12,1.31,1.51c2.24,2.46,6.39,2.71,8.74,0.52c1.74-1.62,1.64-3.81-0.39-4.99
		c-1.44-0.83-3.03-1.42-4.59-2.02c-1.97-0.76-3.11-2-2.97-3.55c0.13-1.4,0.82-2.48,2.09-3.14c2.07-1.09,4.19-1.17,6.36-0.31
		c0.41,0.16,0.82,0.31,1.24,0.43c0.52,0.15,1.43,0.16,1.5,0.41c0.2,0.75,0.07,1.59,0.07,2.39C216.59,72,216.46,72.02,216.34,72.04z"
		/>
	<path class="st5" d="M155.07,81.52c-0.59,1.17-1.14,2.36-1.79,3.48c-0.19,0.32-0.68,0.67-1.03,0.67c-3.24,0.03-6.47-0.02-9.71-0.05
		c-0.1,0-0.19-0.12-0.1-0.05c0.43-1.44,0.92-2.78,1.22-4.15c0.74-3.35,1.41-6.72,2.08-10.09c0.21-1.04,0.33-2.09-1-2.97
		c1.96,0,3.63,0,5.31,0c-1.47,0.87-1.68,2.35-1.98,3.78c-0.69,3.2-1.4,6.4-2.06,9.61c-0.37,1.81,0.27,2.53,2.11,2.57
		c1.88,0.04,3.51-0.63,5.01-1.68c0.58-0.41,1.13-0.86,1.7-1.29C154.91,81.4,154.99,81.46,155.07,81.52z"/>
	<path class="st4" d="M34.81,53.74c1.32-1.07,2.55-1.23,3.75-0.87c1.71,0.52,3.41,1.12,5,1.93c2.77,1.41,5.46,2.99,8.18,4.51
		c0.39,0.22,0.75,0.52,1.12,0.79c-0.04,0.15-0.09,0.3-0.13,0.45c-1.33-0.23-2.72-0.3-3.98-0.74c-1.87-0.66-3.64-1.6-5.47-2.38
		c-2.27-0.98-4.56-1.92-6.83-2.89C35.96,54.33,35.52,54.09,34.81,53.74z"/>
	<path class="st4" d="M42.14,52.52c1.38-0.65,2.67-0.69,3.84-0.07c3.38,1.79,6.7,3.68,10.03,5.55c0.73,0.41,1.41,0.89,2.14,1.3
		c0.32,0.18,0.7,0.24,0.9,0.52c-1.43,0.88-2.54,0.62-3.52,0.11c-4.27-2.23-8.5-4.53-12.74-6.81C42.6,53.01,42.46,52.81,42.14,52.52z
		"/>
	<path class="st4" d="M53.85,54.87c1.99-1.04,8.41,1.85,9.81,4.4c-1.05,0.45-2.13,0.51-3.07-0.04c-2.17-1.24-4.27-2.6-6.4-3.92
		C54.07,55.24,54,55.08,53.85,54.87z"/>
</g>
</svg>
